<svg width="86" height="79" viewBox="0 0 86 79" fill="none" xmlns="http://www.w3.org/2000/svg">
<path d="M61.9667 69.1167H71.5V78.65H61.9667V69.1167ZM14.3 69.1167H23.8333V78.65H14.3V69.1167ZM71.5 19.0667H66.7333V14.3H61.9667V9.53333H54.8167V0H50.05V9.53333H35.75V0H30.9833V9.53333H23.8333V14.3H19.0667V19.0667H14.3V35.75H4.76667V40.5167H14.3V57.2H23.8333V69.1167H35.75V57.2H50.05V69.1167H61.9667V57.2H71.5V40.5167H81.0333V35.75H71.5V19.0667ZM38.1333 45.2833H28.6V26.2167H38.1333V45.2833ZM47.6667 45.2833V26.2167H57.2V45.2833H47.6667ZM81.0333 9.53333H85.8V35.75H81.0333V9.53333ZM0 9.53333H4.76667V35.75H0V9.53333Z" fill="white"/>
</svg>
